<svg xmlns="http://www.w3.org/2000/svg" xmlns:xlink="http://www.w3.org/1999/xlink" width="500" zoomAndPan="magnify" viewBox="0 0 375 374.999991" height="500" preserveAspectRatio="xMidYMid meet" version="1.0"><defs><clipPath id="fede9b498e"><path d="M 48.175781 62.507812 L 327 62.507812 L 327 249 L 48.175781 249 Z M 48.175781 62.507812 " clip-rule="nonzero"/></clipPath><clipPath id="a05ac8c08c"><path d="M 129 239 L 202 239 L 202 312.257812 L 129 312.257812 Z M 129 239 " clip-rule="nonzero"/></clipPath><clipPath id="a0cc8dee1f"><path d="M 127.074219 137.109375 L 139.074219 137.109375 L 139.074219 211.359375 L 127.074219 211.359375 Z M 127.074219 137.109375 " clip-rule="nonzero"/></clipPath><clipPath id="b1b9fcc405"><path d="M 153.460938 137.109375 L 165.460938 137.109375 L 165.460938 211.359375 L 153.460938 211.359375 Z M 153.460938 137.109375 " clip-rule="nonzero"/></clipPath><clipPath id="454c370cb5"><path d="M 179.285156 112.359375 L 195.785156 112.359375 L 195.785156 211.359375 L 179.285156 211.359375 Z M 179.285156 112.359375 " clip-rule="nonzero"/></clipPath><clipPath id="b48dd1327d"><path d="M 209.171875 137.109375 L 221.171875 137.109375 L 221.171875 211.359375 L 209.171875 211.359375 Z M 209.171875 137.109375 " clip-rule="nonzero"/></clipPath><clipPath id="c7ef84cc20"><path d="M 235.007812 137.109375 L 247.007812 137.109375 L 247.007812 211.359375 L 235.007812 211.359375 Z M 235.007812 137.109375 " clip-rule="nonzero"/></clipPath><clipPath id="3372eba7fc"><path d="M 260.839844 137.109375 L 272.839844 137.109375 L 272.839844 211.359375 L 260.839844 211.359375 Z M 260.839844 137.109375 " clip-rule="nonzero"/></clipPath><clipPath id="43874052c2"><path d="M 97.1875 112.359375 L 113.6875 112.359375 L 113.6875 211.359375 L 97.1875 211.359375 Z M 97.1875 112.359375 " clip-rule="nonzero"/></clipPath></defs><g clip-path="url(#fede9b498e)"><path fill="#f8f8f8" d="M 326.824219 190.394531 C 326.824219 222.46875 300.820312 248.441406 268.765625 248.441406 L 106.21875 248.441406 C 74.167969 248.441406 48.175781 222.460938 48.175781 190.394531 L 48.175781 120.726562 C 48.175781 88.683594 74.167969 62.695312 106.21875 62.695312 L 268.761719 62.695312 C 300.820312 62.695312 326.800781 88.683594 326.800781 120.726562 L 326.800781 190.394531 Z M 326.824219 190.394531 " fill-opacity="1" fill-rule="nonzero"/></g><g clip-path="url(#a05ac8c08c)"><path fill="#f8f8f8" d="M 129.453125 240.710938 L 129.453125 312.300781 L 202 239.738281 Z M 129.453125 240.710938 " fill-opacity="1" fill-rule="nonzero"/></g><g clip-path="url(#a0cc8dee1f)"><path fill="#e51534" d="M 127.078125 211.269531 L 127.078125 137.027344 C 131.199219 137.027344 135.324219 137.027344 139.445312 137.027344 C 139.445312 161.777344 139.445312 186.523438 139.445312 211.269531 C 135.324219 211.269531 131.199219 211.269531 127.078125 211.269531 " fill-opacity="1" fill-rule="nonzero"/></g><g clip-path="url(#b1b9fcc405)"><path fill="#e51534" d="M 153.464844 211.269531 L 153.464844 137.027344 C 157.589844 137.027344 161.710938 137.027344 165.835938 137.027344 C 165.835938 161.777344 165.835938 186.523438 165.835938 211.269531 C 161.710938 211.269531 157.589844 211.269531 153.464844 211.269531 " fill-opacity="1" fill-rule="nonzero"/></g><g clip-path="url(#454c370cb5)"><path fill="#e51534" d="M 179.292969 211.28125 L 179.292969 112.691406 C 184.765625 112.691406 190.242188 112.691406 195.71875 112.691406 C 195.71875 145.554688 195.71875 178.417969 195.71875 211.28125 C 190.242188 211.28125 184.765625 211.28125 179.292969 211.28125 " fill-opacity="1" fill-rule="nonzero"/></g><g clip-path="url(#b48dd1327d)"><path fill="#e51534" d="M 209.175781 211.269531 L 209.175781 137.027344 C 213.300781 137.027344 217.421875 137.027344 221.546875 137.027344 C 221.546875 161.777344 221.546875 186.523438 221.546875 211.269531 C 217.421875 211.269531 213.300781 211.269531 209.175781 211.269531 " fill-opacity="1" fill-rule="nonzero"/></g><g clip-path="url(#c7ef84cc20)"><path fill="#e51534" d="M 235.011719 211.269531 L 235.011719 137.027344 C 239.132812 137.027344 243.257812 137.027344 247.378906 137.027344 C 247.378906 161.777344 247.378906 186.523438 247.378906 211.269531 C 243.257812 211.269531 239.132812 211.269531 235.011719 211.269531 " fill-opacity="1" fill-rule="nonzero"/></g><g clip-path="url(#3372eba7fc)"><path fill="#e51534" d="M 260.84375 211.269531 L 260.84375 137.027344 C 264.964844 137.027344 269.089844 137.027344 273.214844 137.027344 C 273.214844 161.777344 273.214844 186.523438 273.214844 211.269531 C 269.089844 211.269531 264.964844 211.269531 260.84375 211.269531 " fill-opacity="1" fill-rule="nonzero"/></g><g clip-path="url(#43874052c2)"><path fill="#e51534" d="M 97.191406 211.28125 L 97.191406 112.691406 C 102.667969 112.691406 108.140625 112.691406 113.617188 112.691406 C 113.617188 145.554688 113.617188 178.417969 113.617188 211.28125 C 108.140625 211.28125 102.667969 211.28125 97.191406 211.28125 " fill-opacity="1" fill-rule="nonzero"/></g></svg>